<svg width="26" height="26" viewBox="0 0 26 26" fill="none" xmlns="http://www.w3.org/2000/svg">
<path id="Vector" d="M16.2893 2.99867L14.6613 1.612C14.1979 1.21706 13.6089 1.00146 13 1.00146C12.3911 1.00146 11.8021 1.21839 11.3387 1.61334L9.71068 3C9.30059 3.34972 8.79059 3.5611 8.25334 3.604L6.12268 3.77334C5.51582 3.82172 4.94601 4.08456 4.51529 4.51479C4.08457 4.94502 3.82108 5.51453 3.77201 6.12134L3.60134 8.25334C3.55868 8.79067 3.34934 9.3 2.99868 9.71067L1.61201 11.34C1.21752 11.8031 1.00085 12.3916 1.00085 13C1.00085 13.6084 1.21752 14.1969 1.61201 14.66L2.99868 16.2893C3.34814 16.6991 3.55949 17.2086 3.60268 17.7453L3.77334 19.8773C3.82146 20.4839 4.08407 21.0536 4.51411 21.4841C4.94414 21.9146 5.51346 22.1779 6.12001 22.2267L8.25334 22.3973C8.7909 22.4396 9.30139 22.6505 9.71201 23L11.3387 24.3867C11.8021 24.7816 12.3911 24.9985 13 24.9985C13.6089 24.9985 14.1979 24.7816 14.6613 24.3867L16.2893 23C16.6996 22.6508 17.2096 22.4399 17.7467 22.3973L19.88 22.2267C20.4863 22.1779 21.0555 21.9148 21.4855 21.4846C21.9155 21.0543 22.1783 20.485 22.2267 19.8787L22.3973 17.7453C22.44 17.208 22.652 16.6987 23.0013 16.288L24.388 14.66C24.7832 14.1967 25.0003 13.6076 25.0003 12.9987C25.0003 12.3897 24.7832 11.8007 24.388 11.3373L23.0013 9.71067C22.652 9.30134 22.44 8.79067 22.396 8.25334L22.2267 6.12C22.1779 5.51367 21.9148 4.94451 21.4846 4.51451C21.0543 4.0845 20.485 3.82175 19.8787 3.77334L17.7453 3.60267C17.2093 3.55867 16.7 3.348 16.2893 2.99867Z" stroke="white" stroke-width="2" stroke-linecap="round" stroke-linejoin="round"/>
</svg>
